<?xml version="1.0" encoding="UTF-8" standalone="no"?>
<!-- Created with Inkscape (http://www.inkscape.org/) -->

<svg
   width="70mm"
   height="70mm"
   viewBox="0 0 70 70"
   version="1.1"
   id="svg1"
   xml:space="preserve"
   xmlns="http://www.w3.org/2000/svg"
   xmlns:svg="http://www.w3.org/2000/svg"><defs
     id="defs1" /><g
     id="layer1"
     transform="translate(-23.566216,-118.00993)"><g
       id="g9"
       transform="translate(4.1441775,2.936794)"><g
         id="g7"
         transform="matrix(0.26458333,0,0,0.26458333,20.555373,116.20647)"><path
           class="st0"
           d="m 118.76887,20.712048 c 0,0 -63.833338,26 -74.333338,83.833332 -10.5,57.83332 37.166671,91.5 86.333328,75.33332 49.16666,-16.16667 70.33334,-51 81.83334,-86.999988 0,0 -9.33334,100.499988 -96.16667,115.499988 -86.833327,15 -118.1666626,-50 -82.166663,-119.833324 10,-21.499996 46.25,-58.916661 84.500003,-67.833328 z"
           id="path4-8" /><path
           class="st1"
           d="m 118.76887,20.712048 c 0,0 -41.125003,3.666667 -83.250003,61.041667 -42.1249995,57.375005 -28.1249995,139.125005 34.25,149.375005 62.375003,10.25 115.874993,-44.875 133.500003,-82.375 17.62501,-37.5 15.16667,-61.458333 9.75,-77.874997 0,0 0.66667,36.416667 -13.33333,59.666667 -14,23.25 -29.75,46.33333 -65.08333,62.16667 -35.333327,15.83334 -74.166671,13.75 -95.416671,-19.25 -21.25,-33 -5.916664,-76.083337 -0.291664,-85.333337 5.625,-9.25 33.499992,-54.333343 79.874995,-67.416675 z"
           id="path6" /><path
           class="st2"
           d="m 73.018867,39.628715 c 0,0 38.125003,-28.125 76.874993,-28.125 38.74999,0 63,28.25 68.5,52.25 5.5,24 6,54.125005 -11.5,87.624995 -17.5,33.49999 -37.375,56 -79.12499,76.125 -41.749995,20.125 -84.625003,2.75 -84.625003,2.75 0,0 25.976975,25.87501 71.050983,16.5 45.07401,-9.375 82.24068,-40.875 98.40735,-69.5 16.16667,-28.625 28.79166,-57.37499 27.66666,-92.249995 -1.125,-34.875 -23.75,-54.5 -31.25,-60.25 -7.5,-5.75 -23.1875,-17.8124995 -58.1875,-16.5624995 -35,1.25 -64.374993,21.6249995 -77.812493,31.4374995 z"
           id="path8" /><path
           class="st3"
           d="m 73.018867,39.628715 c 0,0 35.000003,-32.8124995 82.437493,-32.8124995 47.43749,0 69.1875,24.8124995 78.875,44.6874995 9.6875,19.875 21.8125,70.000005 -12.1875,122.999995 -34,52.99999 -74.625,67.375 -93.625,71.625 -19,4.25 -42.431145,4.26916 -59.111405,-1.23 0,0 35.194745,8.39667 66.778075,-7.43666 31.58333,-15.83333 51.66667,-32.16667 74.08333,-68.83334 22.41666,-36.66667 25.91667,-72.749995 22.16667,-93.916659 -3.75,-21.166664 -12.16667,-42.416671 -36.5,-56.333336 C 171.6022,4.4620514 139.20636,7.8474645 121.45637,13.847464 c -17.74999,6 -29.468753,12.562501 -48.437503,25.781251 z"
           id="path10" /></g><g
         id="g8"
         transform="translate(-57.344691,3.2947702)"><path
           d="m 109.05836,157.25881 v -6.61987 c 1.58186,0.0229 3.15313,-0.266 4.62139,-0.84949 1.46826,-0.5835 2.80494,-1.45062 3.93206,-2.55023 1.12713,-1.09961 2.02212,-2.41018 2.63278,-3.85551 0.61101,-1.44498 0.92534,-2.99614 0.92534,-4.56283 0,-1.56669 -0.31433,-3.11785 -0.92534,-4.56283 -0.61066,-1.44533 -1.50565,-2.7559 -2.63278,-3.85551 -1.12712,-1.09961 -2.4638,-1.96638 -3.93206,-2.55023 -1.46826,-0.58349 -3.03953,-0.87242 -4.62139,-0.84949 v -6.6174 c 4.93854,0 9.67458,1.94239 13.16673,5.39997 3.49214,3.45757 5.45394,8.14705 5.45394,13.0369 0,4.8895 -1.9618,9.57898 -5.45394,13.03655 -3.49215,3.45758 -8.22819,5.39997 -13.16673,5.39997"
           id="path4"
           style="fill:#ffffff;fill-opacity:1;stroke-width:0.0352778" /><path
           d="m 109.05836,148.05837 c 5.14174,0 9.31016,-4.12715 9.31016,-9.21844 0,-5.09094 -4.16842,-9.21844 -9.31016,-9.21844 -5.14216,0 -9.310442,4.1275 -9.310442,9.21844 0,5.09129 4.168282,9.21844 9.310442,9.21844"
           id="path5-4"
           style="fill:#1a9fff;fill-opacity:1;stroke-width:0.0352778" /></g></g></g><style
     type="text/css"
     id="style2">
	.st0{fill:#FDD107;}
	.st1{fill:#F89A1C;}
	.st2{fill:#EF3E23;}
	.st3{fill:#F26222;}
</style></svg>
